HIERARCHY
ROOT SpineBase
{
  OFFSET 0.000000 0.000000 0.000000
  CHANNELS 6 Xposition Yposition Zposition Zrotation Xrotation Yrotation
  JOINT SpineMid
  {
    OFFSET 0.000000 27.854411 0.000000
    CHANNELS 3 Zrotation Xrotation Yrotation
    JOINT SpineShoulder
    {
      OFFSET 0.004888 20.706616 -0.656657
      CHANNELS 3 Zrotation Xrotation Yrotation
      JOINT Neck
      {
        OFFSET -0.011233 6.852694 -0.508444
        CHANNELS 3 Zrotation Xrotation Yrotation
        JOINT Head
        {
          OFFSET -2.910672 11.332756 -1.594571
          CHANNELS 3 Zrotation Xrotation Yrotation
          End Site
          {
            OFFSET 0 0 0
          }
        }
      }
      JOINT ShoulderLeft
      {
        OFFSET -16.282538 -1.974259 7.818636
        CHANNELS 3 Zrotation Xrotation Yrotation
        JOINT ElbowLeft
        {
          OFFSET -3.084709 -21.016685 -1.634700
          CHANNELS 3 Zrotation Xrotation Yrotation
          JOINT WristLeft
          {
            OFFSET 4.454880 -5.181554 -22.978420
            CHANNELS 3 Zrotation Xrotation Yrotation
            JOINT HandLeft
            {
              OFFSET -0.105988 -1.356148 -4.399605
              CHANNELS 3 Zrotation Xrotation Yrotation
              JOINT HandTipLeft
              {
                OFFSET 1.828045 -1.096362 -2.882503
                CHANNELS 3 Zrotation Xrotation Yrotation
                End Site
                {
                  OFFSET 0 0 0
                }
              }
              JOINT ThumbLeft
              {
                OFFSET -3.068931 0.146193 -1.510899
                CHANNELS 3 Zrotation Xrotation Yrotation
                End Site
                {
                  OFFSET 0 0 0
                }
              }
            }
          }
        }
      }
      JOINT ShoulderRight
      {
        OFFSET 14.778960 -1.254216 -7.136306
        CHANNELS 3 Zrotation Xrotation Yrotation
        JOINT ElbowRight
        {
          OFFSET 7.103105 -20.063786 -3.874264
          CHANNELS 3 Zrotation Xrotation Yrotation
          JOINT WristRight
          {
            OFFSET -24.414485 -7.721739 -10.211204
            CHANNELS 3 Zrotation Xrotation Yrotation
            JOINT HandRight
            {
              OFFSET -8.120569 -1.155724 -0.887357
              CHANNELS 3 Zrotation Xrotation Yrotation
              JOINT HandTipRight
              {
                OFFSET -6.804704 -0.710526 -0.942519
                CHANNELS 3 Zrotation Xrotation Yrotation
                End Site
                {
                  OFFSET 0 0 0
                }
              }
              JOINT ThumbRight
              {
                OFFSET -5.381155 2.694356 -2.394091
                CHANNELS 3 Zrotation Xrotation Yrotation
                End Site
                {
                  OFFSET 0 0 0
                }
              }
            }
          }
        }
      }
    }
  }
  JOINT HipLeft
  {
    OFFSET -6.195918 0.156680 -0.838939
    CHANNELS 3 Zrotation Xrotation Yrotation
    JOINT KneeLeft
    {
      OFFSET -4.039542 -35.938018 3.780399
      CHANNELS 3 Zrotation Xrotation Yrotation
      JOINT AnkleLeft
      {
        OFFSET 1.645617 -33.502014 6.755035
        CHANNELS 3 Zrotation Xrotation Yrotation
        JOINT FootLeft
        {
          OFFSET -4.013675 -3.490583 -11.951927
          CHANNELS 3 Zrotation Xrotation Yrotation
          End Site
          {
            OFFSET 0 0 0
          }
        }
      }
    }
  }
  JOINT HipRight
  {
    OFFSET 5.797481 1.316859 -5.527073
    CHANNELS 3 Zrotation Xrotation Yrotation
    JOINT KneeRight
    {
      OFFSET 6.748662 -34.460026 3.715647
      CHANNELS 3 Zrotation Xrotation Yrotation
      JOINT AnkleRight
      {
        OFFSET 1.032943 -32.647758 6.807785
        CHANNELS 3 Zrotation Xrotation Yrotation
        JOINT FootRight
        {
          OFFSET -3.263248 -5.361857 -8.869198
          CHANNELS 3 Zrotation Xrotation Yrotation
          End Site
          {
            OFFSET 0 0 0
          }
        }
      }
    }
  }
}
MOTION
Frames: 14
Frame Time: 0.033333
20.426585 72.421314 354.455271 15.924752 -17.129066 20.389876 -0.001453 -0.501267 -17.431289 -0.520929 0.051915 0.663226 18.414402 8.810189 -4.030479 0.000000 0.000000 0.000000 -5.526040 -14.945256 5.457897 -13.632981 1.282132 13.176186 5.248881 1.658944 9.178822 -23.966608 -2.095921 -1.241419 0.000000 0.000000 0.000000 0.000000 0.000000 0.000000 -19.198506 22.225071 4.969868 53.555770 -24.542936 -2.753309 5.763403 5.346097 -20.809342 -1.527261 -9.429537 -16.214859 0.000000 0.000000 0.000000 0.000000 0.000000 0.000000 -16.054342 37.302063 -15.662049 11.822281 -1.955520 5.143959 9.649951 -42.136672 2.198025 0.000000 0.000000 0.000000 -5.186714 19.349491 -17.332075 -2.010217 -0.914547 0.132040 0.577193 -4.129526 -2.643225 0.000000 0.000000 0.000000
19.987474 70.999066 354.221551 17.757175 -18.285574 21.562206 -0.112878 -0.071422 -18.100888 -0.191776 -0.018298 0.708215 15.780262 8.898376 -4.178819 0.000000 0.000000 0.000000 -4.748549 -16.557218 6.024723 -15.713551 4.214549 15.477493 4.844303 -3.918833 7.496534 -22.056338 3.249914 4.109765 0.000000 0.000000 0.000000 0.000000 0.000000 0.000000 -20.905775 22.021597 4.827833 55.364603 -24.094756 -2.037896 4.353054 5.823292 -21.009106 0.074322 -9.280777 -15.460648 0.000000 0.000000 0.000000 0.000000 0.000000 0.000000 -19.637709 40.570875 -14.754788 12.689549 -0.662129 5.527702 13.071771 -47.029886 2.532254 0.000000 0.000000 0.000000 -5.381354 19.728982 -18.142833 -3.519381 0.283913 0.160284 1.792307 0.093340 -6.825753 0.000000 0.000000 0.000000
19.238448 69.557549 353.745119 19.252002 -19.052364 22.514057 0.002209 0.097289 -18.664650 0.010331 0.064992 0.737748 12.980049 8.148692 -4.110623 0.000000 0.000000 0.000000 -4.233010 -18.164299 6.609086 -17.548935 6.004552 16.414252 4.767174 -9.281272 9.558214 -20.459187 9.894971 5.330723 0.000000 0.000000 0.000000 0.000000 0.000000 0.000000 -22.841409 21.485118 4.844535 56.942167 -23.702712 -2.176175 3.084502 7.077819 -18.810586 -0.275383 -10.476417 -18.582707 0.000000 0.000000 0.000000 0.000000 0.000000 0.000000 -22.413863 42.663061 -13.940021 12.899201 1.173272 5.712061 13.628510 -47.441568 -3.109845 0.000000 0.000000 0.000000 -5.014415 19.605803 -18.937587 -5.068672 1.018209 0.222292 0.676967 6.145349 -7.995034 0.000000 0.000000 0.000000
18.164382 68.242548 353.035472 20.738447 -19.710573 23.647241 0.200253 -0.065588 -19.392250 0.061960 0.118052 0.790476 7.860513 9.642381 -3.867219 0.000000 0.000000 0.000000 -4.406011 -19.052196 7.131993 -18.820644 6.707369 16.611518 5.096691 -16.444564 11.325824 -17.071254 20.495353 8.180642 0.000000 0.000000 0.000000 0.000000 0.000000 0.000000 -25.428689 21.448254 5.394285 58.937126 -23.548320 -1.757004 0.656389 7.685206 -18.851742 4.049759 -9.677496 -16.453307 0.000000 0.000000 0.000000 0.000000 0.000000 0.000000 -24.358825 44.055104 -13.590421 12.502929 2.838525 5.637726 11.756613 -40.141397 -15.220686 0.000000 0.000000 0.000000 -4.682816 19.421194 -19.895253 -6.569352 1.434247 0.306306 -1.305479 15.178702 -8.617811 0.000000 0.000000 0.000000
16.847322 67.203793 352.196018 21.862412 -20.202287 25.779427 0.405501 -0.337883 -21.202671 0.092511 0.171585 0.831505 4.494135 10.284221 -3.681299 0.000000 0.000000 0.000000 -4.781988 -19.894314 7.658616 -19.725699 7.051791 15.247463 6.416145 -22.636667 14.256735 -16.957288 27.059970 6.291232 0.000000 0.000000 0.000000 0.000000 0.000000 0.000000 -26.202339 20.910164 4.914363 59.065328 -22.570700 -1.576625 -1.301879 8.198772 -18.919600 6.443819 -9.307892 -15.744616 0.000000 0.000000 0.000000 0.000000 0.000000 0.000000 -24.252636 45.245954 -15.113321 12.086085 4.275231 5.521688 13.189294 -28.690168 -36.246831 0.000000 0.000000 0.000000 -3.660553 19.157293 -22.042862 -7.675621 1.515725 0.437883 -6.485440 28.024054 -6.298603 0.000000 0.000000 0.000000
15.444054 66.102158 351.486740 22.255863 -20.429873 23.549077 0.551434 -0.404837 -18.858291 0.065309 0.152479 0.858976 3.752929 9.544748 -3.702433 0.000000 0.000000 0.000000 -5.805551 -19.770927 7.797109 -19.388311 6.207878 12.995337 7.950332 -28.005347 15.850620 -17.513454 32.406372 6.279106 0.000000 0.000000 0.000000 0.000000 0.000000 0.000000 -26.831948 20.434644 4.832124 59.869935 -22.056118 -1.138903 -3.338982 8.717943 -19.047435 11.130782 -7.840920 -12.569558 0.000000 0.000000 0.000000 0.000000 0.000000 0.000000 -26.878693 43.558288 -11.792757 12.318614 5.437922 5.416374 18.795390 -10.260269 -56.096814 0.000000 0.000000 0.000000 -2.752279 19.233569 -19.989964 -8.780936 0.218569 0.294606 -13.774221 38.058536 -0.776637 0.000000 0.000000 0.000000
14.069230 65.344961 350.836082 22.102325 -20.620376 22.578837 0.729972 -0.681241 -17.881097 0.021032 0.097327 0.877683 6.905204 7.534063 -4.224910 0.000000 0.000000 0.000000 -6.639735 -18.910612 7.699614 -18.952978 4.254335 11.063039 8.462419 -30.051843 13.568846 -19.110582 34.430562 8.538954 0.000000 0.000000 0.000000 0.000000 0.000000 0.000000 -27.080298 20.201333 4.807143 60.525136 -21.557952 -0.703264 -4.314623 9.239191 -18.657085 14.884563 -6.894764 -10.422771 0.000000 0.000000 0.000000 0.000000 0.000000 0.000000 -26.773861 42.432956 -10.942525 12.874149 5.476803 5.398319 23.602779 2.344358 -67.235320 0.000000 0.000000 0.000000 -1.333157 19.087026 -19.388279 -9.121017 -0.843777 0.323364 -25.848517 45.473389 10.360611 0.000000 0.000000 0.000000
12.841859 64.824786 350.343586 22.588031 -21.476790 20.252760 0.545947 -0.564306 -15.247737 -0.156049 0.083562 0.906950 7.991950 8.134161 -4.628384 0.000000 0.000000 0.000000 -7.735506 -18.497375 7.909538 -18.276654 2.570494 8.421595 10.757256 -27.308967 17.409847 -19.958368 33.179582 5.496927 0.000000 0.000000 0.000000 0.000000 0.000000 0.000000 -26.013289 20.100736 4.064165 60.159490 -20.605841 -0.422888 -4.810844 10.066393 -17.214700 15.600648 -7.830716 -11.625572 0.000000 0.000000 0.000000 0.000000 0.000000 0.000000 -27.930744 41.330921 -8.016354 13.517056 4.875879 5.397926 25.598359 11.974039 -72.055833 0.000000 0.000000 0.000000 -1.163424 20.192069 -16.992390 -8.986326 -1.988530 0.350317 -37.670025 46.712840 22.549993 0.000000 0.000000 0.000000
11.883006 64.475809 350.008324 22.910484 -22.511407 14.882410 0.479150 -0.603325 -9.555317 -0.377651 0.109907 0.935474 9.677991 9.401547 -5.241634 0.000000 0.000000 0.000000 -9.191784 -17.957851 8.225085 -17.126069 1.092299 6.373948 10.974843 -21.430430 16.282584 -24.413297 24.206382 4.117549 0.000000 0.000000 0.000000 0.000000 0.000000 0.000000 -24.625608 20.380412 3.267833 60.089433 -19.820337 0.211518 -4.093622 11.218132 -14.686429 13.014181 -8.156651 -11.429994 0.000000 0.000000 0.000000 0.000000 0.000000 0.000000 -31.153737 38.514305 -1.642145 13.872058 4.676230 5.246604 23.389144 20.919889 -68.023876 0.000000 0.000000 0.000000 -2.501257 21.866391 -11.247772 -8.239476 -3.458732 0.388664 -46.927058 45.250913 32.372299 0.000000 0.000000 0.000000
11.188807 64.322816 349.823230 23.256579 -23.636951 13.396750 0.297549 -0.579463 -7.714861 -0.565561 0.112334 0.964358 11.611946 10.849380 -5.973849 0.000000 0.000000 0.000000 -10.947654 -17.175147 8.566506 -15.651395 -0.306579 4.429392 11.003580 -15.173912 15.321043 -27.956542 15.845523 1.027194 0.000000 0.000000 0.000000 0.000000 0.000000 0.000000 -23.554764 20.895526 2.736372 60.309612 -19.109272 1.442957 -2.972222 11.966004 -13.520684 12.128614 -8.257334 -10.768996 0.000000 0.000000 0.000000 0.000000 0.000000 0.000000 -32.028481 38.261132 0.568257 13.938896 4.587364 5.174128 25.676882 20.057504 -73.579150 0.000000 0.000000 0.000000 -2.586199 23.049374 -9.621165 -7.775411 -3.794671 0.533716 -53.362241 46.369318 37.781744 0.000000 0.000000 0.000000
10.879052 64.513032 349.720062 24.226441 -24.803616 15.060570 0.256314 -0.659064 -8.860646 -0.584744 0.077083 1.010974 11.441271 12.652985 -6.509093 0.000000 0.000000 0.000000 -12.061027 -16.984211 9.107768 -15.381521 -0.563220 3.587293 11.203835 -11.138913 15.235463 -29.673204 11.033092 0.961206 0.000000 0.000000 0.000000 0.000000 0.000000 0.000000 -23.263004 21.753667 2.321638 60.265126 -18.352538 3.093192 -1.753665 12.526237 -12.946123 9.434953 -8.717357 -11.474582 0.000000 0.000000 0.000000 0.000000 0.000000 0.000000 -31.939605 40.333413 -0.073080 14.590528 4.277227 5.429303 19.100397 19.652989 -63.899077 0.000000 0.000000 0.000000 -2.962561 24.270559 -10.834757 -6.877181 -3.625850 0.742840 -53.518095 44.744517 38.061506 0.000000 0.000000 0.000000
10.672279 64.472232 349.652871 24.801936 -25.590430 15.358146 0.279606 -0.597146 -8.845831 -0.279552 0.036841 0.990916 10.393045 13.505028 -6.643564 0.000000 0.000000 0.000000 -13.116048 -17.417394 9.673518 -14.961914 -0.120304 3.437491 10.780988 -8.846196 12.545098 -31.085117 6.852068 1.215702 0.000000 0.000000 0.000000 0.000000 0.000000 0.000000 -23.658241 22.133080 2.220082 61.094526 -17.907199 4.586026 -0.906129 12.984465 -12.766336 9.694220 -9.096535 -11.341071 0.000000 0.000000 0.000000 0.000000 0.000000 0.000000 -32.730310 41.571956 0.553533 15.716209 3.713547 5.852395 17.516471 21.113343 -62.716148 0.000000 0.000000 0.000000 -3.605594 24.777735 -10.738440 -6.158695 -2.768931 0.922220 -52.560891 43.991684 36.644002 0.000000 0.000000 0.000000
10.800818 64.530028 349.685854 25.633969 -26.498622 16.132898 0.116929 -0.820992 -9.105750 -0.140262 -0.024113 1.002712 10.899065 15.531217 -7.315352 0.000000 0.000000 0.000000 -14.092445 -17.564950 10.324842 -14.617413 0.486127 2.527364 11.119726 -7.425626 12.909287 -34.400418 3.279260 -2.654409 0.000000 0.000000 0.000000 0.000000 0.000000 0.000000 -23.807424 22.810459 2.039937 61.521363 -17.293223 5.571999 -0.420889 13.559888 -12.213323 10.416649 -9.290109 -10.845651 0.000000 0.000000 0.000000 0.000000 0.000000 0.000000 -33.797228 43.547706 1.069373 16.775775 2.900037 6.388353 17.470095 22.902579 -63.694069 0.000000 0.000000 0.000000 -4.893623 25.673325 -10.780502 -4.929890 -1.959019 1.109379 -49.106659 39.919622 34.051038 0.000000 0.000000 0.000000
11.097826 64.604928 349.754640 26.760684 -27.397958 16.797793 0.141508 -0.989116 -9.206651 -0.149494 0.079675 1.023728 8.807296 18.015850 -7.322239 0.000000 0.000000 0.000000 -14.681560 -18.646560 11.144352 -14.885976 2.024587 1.051198 11.745550 -8.179720 13.343517 -35.842126 3.196523 -4.227138 0.000000 0.000000 0.000000 0.000000 0.000000 0.000000 -24.605572 23.207239 2.080996 62.119537 -16.727904 6.273159 -0.107825 13.721043 -12.548804 14.780186 -10.179142 -10.354508 0.000000 0.000000 0.000000 0.000000 0.000000 0.000000 -36.158570 45.444494 2.422602 18.375192 1.913688 7.077944 15.952466 26.278889 -61.785713 0.000000 0.000000 0.000000 -7.257296 26.836168 -10.215882 -3.261180 -1.281243 1.282676 -47.140566 40.450569 31.182781 0.000000 0.000000 0.000000
